# xmcd
#
# Track frame offsets: 
#        150
#        15224
#        28989
#        43112
#        56403
#        72822
#        91741
#        110249
#        127542
#        146061
#        169011
#        184829
#        208022
#        229829
#        255345
#
# Disc length: 3811 seconds
#
# Revision: 4
# Processed by: cddbd v1.5.2PL0 Copyright (c) Steve Scherf et al.
# Submitted via: ExactAudioCopy v1.1
#
DISCID=c50ee10f
DTITLE=Eloise Laws - Love Factory
DYEAR=1999
DGENRE=Soul
TTITLE0=Love Factory
TTITLE1=Stay With Me
TTITLE2=You Made Me An Offer I Can't Refuse
TTITLE3=Tighten Him Up
TTITLE4=Touch Me
TTITLE5=You Got Me Loving You Again
TTITLE6=Love Goes Deeper Then That
TTITLE7=Ain't It Good Feeling Good
TTITLE8=Make It Last Forever
TTITLE9=Where Did We Go Wrong
TTITLE10=I Believe In You Baby
TTITLE11=Put A Little Love Into It (When You Do It)
TTITLE12=Camouflage
TTITLE13=Love Goes Deeper Than That (12 inch Version)
TTITLE14=Put A Little Love Into It (When You Do It) (12 inch Version)
EXTD=
EXTT0=
EXTT1=
EXTT2=
EXTT3=
EXTT4=
EXTT5=
EXTT6=
EXTT7=
EXTT8=
EXTT9=
EXTT10=
EXTT11=
EXTT12=
EXTT13=
EXTT14=
PLAYORDER=
